<svg xmlns="http://www.w3.org/2000/svg" width="28" height="28" viewBox="0 0 28 28">
  <g id="amount" transform="translate(-1 -1)">
    <path id="Path_249016" data-name="Path 249016" d="M15.467,15.933a7.467,7.467,0,1,1,7.467-7.467A7.475,7.475,0,0,1,15.467,15.933Zm0-13.067a5.6,5.6,0,1,0,5.6,5.6A5.606,5.606,0,0,0,15.467,2.867Z" transform="translate(-0.467)" fill="#00a7e8"/>
    <path id="Path_249017" data-name="Path 249017" d="M16.173,12.64h-.747A2.439,2.439,0,0,1,13.1,10.9a.933.933,0,1,1,1.79-.527.564.564,0,0,0,.537.4h.747a.56.56,0,0,0,0-1.121h-.747a2.427,2.427,0,0,1,0-4.853h.747a2.423,2.423,0,0,1,2.3,1.659A.933.933,0,1,1,16.7,7.05a.558.558,0,0,0-.531-.384h-.747a.56.56,0,0,0,0,1.12h.747a2.427,2.427,0,1,1,0,4.853Z" transform="translate(-0.8 -0.253)" fill="#00a7e8"/>
    <path id="Path_249018" data-name="Path 249018" d="M15,5.867a.96.96,0,0,1-.663-.271.891.891,0,0,1-.112-.149.519.519,0,0,1-.084-.159.627.627,0,0,1-.057-.168,1.4,1.4,0,0,1-.018-.187.933.933,0,1,1,1.867,0,1.152,1.152,0,0,1-.02.187.566.566,0,0,1-.056.168.539.539,0,0,1-.084.159c-.037.056-.075.1-.112.149A.977.977,0,0,1,15,5.867Zm0,7.467a.96.96,0,0,1-.663-.271.891.891,0,0,1-.112-.149.519.519,0,0,1-.084-.159.627.627,0,0,1-.057-.168,1.4,1.4,0,0,1-.018-.187.933.933,0,1,1,1.867,0,1.152,1.152,0,0,1-.02.187.566.566,0,0,1-.056.168.54.54,0,0,1-.084.159c-.037.056-.075.1-.112.149A.977.977,0,0,1,15,13.334ZM16.867,29.2H1.933A.933.933,0,0,1,1,28.267v-8.4a.931.931,0,0,1,.273-.66c.218-.219,2.2-2.14,4.393-2.14,1.814,0,4.155,1.371,4.942,1.867H15a2.8,2.8,0,0,1,2.758,3.284l7.365-3.069A2.8,2.8,0,0,1,29,21.734a.933.933,0,0,1-.463.806l-11.2,6.533a.936.936,0,0,1-.47.127Zm-14-1.867H16.614l10.4-6.065a.943.943,0,0,0-.293-.312.918.918,0,0,0-.876-.085l-8.615,3.59a.94.94,0,0,1-.36.072H9.4a.933.933,0,1,1,0-1.867H15A.934.934,0,0,0,15,20.8H10.333a.945.945,0,0,1-.518-.156c-.714-.476-2.854-1.711-4.149-1.711a5.086,5.086,0,0,0-2.8,1.343Z" transform="translate(0 -0.201)" fill="#00a7e8"/>
  </g>
</svg>
