<svg id="Component_10_1" data-name="Component 10 – 1" xmlns="http://www.w3.org/2000/svg" width="22.312" height="27.185" viewBox="0 0 22.312 27.185">
  <path id="Path_249031" data-name="Path 249031" d="M33.5,22H49.144v3.847H33.5Zm14.105,7.437H34.526a.769.769,0,1,0,0,1.539H47.605a.769.769,0,1,0,0-1.539Zm0,3.847H34.526a.769.769,0,1,0,0,1.539H47.605a.769.769,0,1,0,0-1.539Zm-6.283,3.847h-6.8a.769.769,0,1,0,0,1.539h6.8a.769.769,0,1,0,0-1.539Z" transform="translate(-30.166 -18.666)" fill="#00a7e8"/>
  <path id="Path_249032" data-name="Path 249032" d="M23.834,36.185H39.478a3.327,3.327,0,0,0,3.334-3.334V12.334A3.327,3.327,0,0,0,39.478,9H23.834A3.327,3.327,0,0,0,20.5,12.334V32.851A3.327,3.327,0,0,0,23.834,36.185Zm-1.8-23.851a1.784,1.784,0,0,1,1.8-1.8H39.478a1.784,1.784,0,0,1,1.8,1.8V32.851a1.784,1.784,0,0,1-1.8,1.8H23.834a1.784,1.784,0,0,1-1.8-1.8Z" transform="translate(-20.5 -9)" fill="#00a7e8"/>
</svg>
