<svg id="Component_8_1" data-name="Component 8 – 1" xmlns="http://www.w3.org/2000/svg" width="23.411" height="16.117" viewBox="0 0 23.411 16.117">
  <path id="Path_248930" data-name="Path 248930" d="M25.358,6.566a.8.8,0,0,0-.075-.146.749.749,0,0,0-.042-.089,1.333,1.333,0,0,0-.259-.194l-.142-.049H2.786a.863.863,0,0,0-.176,0l-.142.049a.839.839,0,0,0-.125.081.829.829,0,0,0-.125.105.741.741,0,0,0-.042.089A.633.633,0,0,0,2,6.728a.729.729,0,0,0,0,.1V21.392a.823.823,0,0,0,.836.809H24.572a.823.823,0,0,0,.836-.809V6.825a.729.729,0,0,0,0-.1.79.79,0,0,0-.05-.162ZM22.114,7.635,13.7,13.9,5.294,7.635Zm1.622,12.948H3.672V8.444l9.522,7.089a.858.858,0,0,0,1.02,0l9.522-7.089Z" transform="translate(-1.998 -6.084)" fill="#1eaae7"/>
</svg>
