<svg xmlns="http://www.w3.org/2000/svg" width="14.8" height="25.899" viewBox="0 0 14.8 25.899">
  <g id="guid" transform="translate(-403 -447.016)">
    <path id="Path_249043" data-name="Path 249043" d="M28.95,268.049v-.925a.925.925,0,0,1,1.85,0v1.85a.925.925,0,0,1-.925.925H16.925a.925.925,0,0,1-.925-.925v-18.5a.923.923,0,0,1,.1-.413l2.775-5.55A.925.925,0,0,1,19.7,244h7.4a.925.925,0,0,1,.827.512l2.775,5.55a.923.923,0,0,1,.1.413v12.95a.925.925,0,0,1-1.85,0V250.693l-2.422-4.843H20.272l-2.422,4.843v17.356Z" transform="translate(387 203.016)" fill="#00a7e8" fill-rule="evenodd"/>
    <path id="Path_249044" data-name="Path 249044" d="M40.925,279.85h5.55a.925.925,0,0,0,0-1.85h-5.55a.925.925,0,0,0,0,1.85Z" transform="translate(366.7 188.441)" fill="#00a7e8" fill-rule="evenodd"/>
    <path id="Path_249045" data-name="Path 249045" d="M26.925,279.85h3.7a.925.925,0,1,0,0-1.85h-3.7a.925.925,0,1,0,0,1.85Z" transform="translate(381.625 184.74)" fill="#00a7e8" fill-rule="evenodd"/>
    <path id="Path_249046" data-name="Path 249046" d="M30.775,250a2.775,2.775,0,1,0,2.775,2.775A2.777,2.777,0,0,0,30.775,250Zm0,1.85a.925.925,0,1,1-.925.925A.925.925,0,0,1,30.775,251.85Z" transform="translate(379.625 200.716)" fill="#00a7e8" fill-rule="evenodd"/>
  </g>
</svg>
