<svg id="Component_9_1" data-name="Component 9 – 1" xmlns="http://www.w3.org/2000/svg" width="62.063" height="47.422" viewBox="0 0 62.063 47.422">
  <path id="Path_248908" data-name="Path 248908" d="M64.722,61.222H13.542A5.475,5.475,0,0,1,8.1,55.78V19.242A5.475,5.475,0,0,1,13.542,13.8h51.18a5.475,5.475,0,0,1,5.442,5.442V55.78A5.475,5.475,0,0,1,64.722,61.222ZM13.412,17.3A1.771,1.771,0,0,0,11.6,19.112V55.651a1.771,1.771,0,0,0,1.814,1.814h51.18a1.771,1.771,0,0,0,1.814-1.814V19.112A1.771,1.771,0,0,0,64.592,17.3Z" transform="translate(-8.1 -13.8)" fill="#1eaae7"/>
  <path id="Path_248909" data-name="Path 248909" d="M48.148,33.753a7.106,7.106,0,0,1-7.126-7.126,7.126,7.126,0,1,1,7.126,7.126Zm0-11.013A3.757,3.757,0,1,0,51.906,26.5,3.76,3.76,0,0,0,48.148,22.739Zm9.718,36.15L27.935,30.772,10.832,46.58,8.5,44.118l19.435-18.01L60.2,56.427l-2.332,2.462" transform="translate(-7.982 -12.115)" fill="#1eaae7"/>
  <path id="Path_248910" data-name="Path 248910" d="M58.472,45.539,48.5,37.505,40.2,44.372,38,41.652,48.5,33.1l12.05,9.847-2.073,2.591" transform="translate(0.741 -8.093)" fill="#1eaae7"/>
</svg>
