<svg id="asdasd" xmlns="http://www.w3.org/2000/svg" xmlns:xlink="http://www.w3.org/1999/xlink" width="30.563" height="24.803" viewBox="0 0 30.563 24.803">
  <defs>
    <clipPath id="clip-path">
      <rect id="Rectangle_26652" data-name="Rectangle 26652" width="30.563" height="24.803" fill="none"/>
    </clipPath>
  </defs>
  <g id="Group_70712" data-name="Group 70712" clip-path="url(#clip-path)">
    <path id="Path_249061" data-name="Path 249061" d="M28.292,13.722A1.078,1.078,0,0,1,27.2,14.784H3.264a1.078,1.078,0,0,1-1.095-1.062V3.166A1.078,1.078,0,0,1,3.264,2.1H27.2A1.078,1.078,0,0,1,28.3,3.166ZM27.2,0H3.264A3.216,3.216,0,0,0,0,3.166V13.721a3.217,3.217,0,0,0,3.264,3.167H27.2a3.217,3.217,0,0,0,3.264-3.167V3.166A3.216,3.216,0,0,0,27.2,0" transform="translate(0 0)" fill="#212345"/>
    <path id="Path_249062" data-name="Path 249062" d="M23.969,9.834H22.874a1.087,1.087,0,0,0-1.208.939,1.091,1.091,0,0,0,1.208,1.173h1.095a1.059,1.059,0,0,0,0-2.111M5.481,3.495H4.4a1.087,1.087,0,0,0-1.208.939A1.091,1.091,0,0,0,4.4,5.606H5.493A1.087,1.087,0,0,0,6.7,4.667,1.091,1.091,0,0,0,5.493,3.495Zm8.7,7.388a3.217,3.217,0,0,1-3.264-3.167,3.266,3.266,0,0,1,6.528-.005,3.216,3.216,0,0,1-3.259,3.172Zm0-8.445A5.36,5.36,0,0,0,8.741,7.715a5.36,5.36,0,0,0,5.439,5.277,5.36,5.36,0,0,0,5.439-5.277,5.36,5.36,0,0,0-5.439-5.272" transform="translate(1.077 0.728)" fill="#3194d4"/>
    <path id="Path_249063" data-name="Path 249063" d="M1.249,16.538H29.423a1.052,1.052,0,1,0,0-2.1H1.249a1.052,1.052,0,1,0,0,2.1" transform="translate(0.056 4.308)" fill="#212345"/>
    <path id="Path_249064" data-name="Path 249064" d="M1.249,19.586H29.423a1.052,1.052,0,1,0,0-2.1H1.249a1.052,1.052,0,1,0,0,2.1" transform="translate(0.056 5.218)" fill="#212345"/>
  </g>
</svg>
