<svg xmlns="http://www.w3.org/2000/svg" width="19.378" height="25.704" viewBox="0 0 19.378 25.704">
  <g id="old_balance" transform="translate(0.1 0.101)">
    <g id="Group_70620" data-name="Group 70620" transform="translate(0 0)">
      <path id="Path_249019" data-name="Path 249019" d="M14.323,21.954h1.8A1.243,1.243,0,0,1,17.361,23.2a.531.531,0,1,0,1.063,0,2.307,2.307,0,0,0-2.3-2.3h-.367V19.334a.531.531,0,1,0-1.063,0v1.558h-.367a2.3,2.3,0,0,0,0,4.608h1.8a1.242,1.242,0,1,1,0,2.483h-1.8a1.243,1.243,0,0,1-1.242-1.242.531.531,0,1,0-1.063,0,2.306,2.306,0,0,0,2.3,2.3h.367V30.6a.531.531,0,0,0,1.063,0V29.045h.367a2.3,2.3,0,0,0,0-4.608h-1.8a1.242,1.242,0,1,1,0-2.483Z" transform="translate(-5.634 -8.813)" fill="#00a7e8" stroke="#00a7e8" stroke-width="0.2"/>
      <path id="Path_249020" data-name="Path 249020" d="M12.925,6.1a.537.537,0,0,1-.257-.325.431.431,0,0,1,.053-.335c2.407-4.007,2.01-4.71,1.84-5.009A.85.85,0,0,0,13.794,0,9.127,9.127,0,0,0,11.62.328,8.692,8.692,0,0,1,9.537.643,6.38,6.38,0,0,1,7.752.357,8.45,8.45,0,0,0,5.381,0a.957.957,0,0,0-.894.49c-.18.33-.6,1.1,1.9,4.971a.43.43,0,0,1,.062.337.54.54,0,0,1-.258.335C2.486,8.366,0,13.785,0,17.445,0,22.114,4.031,25.5,9.588,25.5s9.591-3.389,9.591-8.058c0-3.7-2.513-9.141-6.254-11.35M9.588,24.44c-5.021,0-8.528-2.876-8.528-7A13.877,13.877,0,0,1,6.151,7.434h4.781a.531.531,0,0,0,0-1.063H7.357a1.479,1.479,0,0,0-.082-1.488C5.763,2.543,5.4,1.412,5.411,1.064a7.419,7.419,0,0,1,2.069.319A7.439,7.439,0,0,0,9.537,1.7a9.663,9.663,0,0,0,2.328-.344,8.9,8.9,0,0,1,1.761-.293,12.45,12.45,0,0,1-1.689,3.607H8.5a.531.531,0,0,0,0,1.063h3.092a1.5,1.5,0,0,0,.044.295,1.589,1.589,0,0,0,.744.978C15.76,9,18.113,14.11,18.113,17.445c0,4.119-3.5,7-8.525,7" transform="translate(0 0)" fill="#00a7e8" stroke="#00a7e8" stroke-width="0.2"/>
    </g>
  </g>
</svg>
