<svg xmlns="http://www.w3.org/2000/svg" xmlns:xlink="http://www.w3.org/1999/xlink" width="28.755" height="27.691" viewBox="0 0 28.755 27.691">
  <defs>
    <clipPath id="clip-path">
      <rect id="Rectangle_26565" data-name="Rectangle 26565" width="28.755" height="27.691" fill="#00a7e8"/>
    </clipPath>
  </defs>
  <g id="Group_70613" data-name="Group 70613" clip-path="url(#clip-path)">
    <path id="Path_249012" data-name="Path 249012" d="M3.552,2.983a.8.8,0,1,0,0,1.6H24.319a.8.8,0,1,0,0-1.6ZM4.6,5.634a.8.8,0,0,0-.786.81V26.413a.8.8,0,0,0,.8.8H22.828a.8.8,0,0,0,.8-.8V6.444a.8.8,0,0,0-1.6,0v19.17H5.415V6.444a.8.8,0,0,0-.811-.81" transform="translate(0.442 0.48)" fill="#00a7e8"/>
    <path id="Path_249013" data-name="Path 249013" d="M2.4,0A2.409,2.409,0,0,0,0,2.4V6.123a2.409,2.409,0,0,0,2.4,2.4.8.8,0,0,0,0-1.6.78.78,0,0,1-.8-.8V2.4a.78.78,0,0,1,.8-.8H26.36a.78.78,0,0,1,.8.8V6.123a.78.78,0,0,1-.8.8.8.8,0,1,0,0,1.6,2.408,2.408,0,0,0,2.4-2.4V2.4A2.408,2.408,0,0,0,26.36,0Z" transform="translate(0 0.001)" fill="#00a7e8"/>
    <path id="Path_249014" data-name="Path 249014" d="M12.577,7.341a.8.8,0,0,0-.786.81v.32A2.409,2.409,0,0,0,9.927,10.8v.8a2.408,2.408,0,0,0,2.4,2.4h.533a.78.78,0,0,1,.8.8v.8a.78.78,0,0,1-.8.8h-.533a.78.78,0,0,1-.8-.8.8.8,0,1,0-1.6,0,2.409,2.409,0,0,0,1.864,2.331v.32a.8.8,0,1,0,1.6,0v-.32A2.409,2.409,0,0,0,15.252,15.6v-.8a2.409,2.409,0,0,0-2.4-2.4h-.533a.78.78,0,0,1-.8-.8v-.8a.78.78,0,0,1,.8-.8h.533a.78.78,0,0,1,.8.8.8.8,0,1,0,1.6,0,2.409,2.409,0,0,0-1.864-2.331v-.32a.8.8,0,0,0-.811-.81" transform="translate(1.594 1.18)" fill="#00a7e8"/>
  </g>
</svg>
