<svg id="Component_2_1" data-name="Component 2 – 1" xmlns="http://www.w3.org/2000/svg" xmlns:xlink="http://www.w3.org/1999/xlink" width="26.869" height="30.088" viewBox="0 0 26.869 30.088">
  <defs>
    <clipPath id="clip-path">
      <rect id="Rectangle_26650" data-name="Rectangle 26650" width="26.869" height="30.088" fill="none"/>
    </clipPath>
  </defs>
  <g id="Group_70709" data-name="Group 70709" clip-path="url(#clip-path)">
    <path id="Path_249056" data-name="Path 249056" d="M23.418,15.767h-2.48A3.659,3.659,0,0,0,17.3,18.534,3.51,3.51,0,0,0,20.069,22.7a3.709,3.709,0,0,0,.765.079h2.583ZM12.053,8.749a4.113,4.113,0,0,0-3.989,3.008h7.977a4.113,4.113,0,0,0-3.989-3.008" transform="translate(2.413 2.28)" fill="#4ca5e2"/>
    <path id="Path_249057" data-name="Path 249057" d="M22.812,0H4.22A1.024,1.024,0,0,0,3.181,1.01V14.037H7.407v-.2a6.537,6.537,0,0,1,.269-.882.9.9,0,0,1,.073-.17,4.884,4.884,0,0,1,.382-.756l.13-.19a4.689,4.689,0,0,1,.52-.672,1.485,1.485,0,0,1,.13-.14,6.466,6.466,0,0,1,.661-.621,5.969,5.969,0,0,1,.8-.532l.073-.05a6.682,6.682,0,0,1,.868-.378l.13-.05a6.983,6.983,0,0,1,.92-.241H12.5a5.58,5.58,0,0,1,2,0h.13a6.983,6.983,0,0,1,.92.241l.13.05a6.682,6.682,0,0,1,.868.378l.073.05a5.969,5.969,0,0,1,.8.532,6.466,6.466,0,0,1,.661.621,1.485,1.485,0,0,1,.13.14,4.689,4.689,0,0,1,.52.672l.13.19a4.772,4.772,0,0,1,.382.756.9.9,0,0,1,.073.17,6.537,6.537,0,0,1,.269.882v.2h4.308V1.01A1.025,1.025,0,0,0,22.856,0h-.044m-9.3,7.018a1.5,1.5,0,1,1,1.55-1.5,1.527,1.527,0,0,1-1.55,1.5" transform="translate(0.952 0)" fill="#4ca5e2"/>
    <path id="Path_249058" data-name="Path 249058" d="M4.133,7.574a2,2,0,1,0,0,4.01h21.7a1.024,1.024,0,0,1,1.039,1.008V27.628a1.024,1.024,0,0,1-1.039,1.008H4.133A4.072,4.072,0,0,1,0,24.627V9.578a4.072,4.072,0,0,1,4.133-4.01ZM2.066,13.047V24.615a2.038,2.038,0,0,0,2.067,2H24.8V13.588H4.133a4.235,4.235,0,0,1-2.067-.541" transform="translate(0 1.451)" fill="#322f56"/>
  </g>
</svg>
