<svg id="Component_6_1" data-name="Component 6 – 1" xmlns="http://www.w3.org/2000/svg" xmlns:xlink="http://www.w3.org/1999/xlink" width="33.425" height="34.924" viewBox="0 0 33.425 34.924">
  <defs>
    <clipPath id="clip-path">
      <rect id="Rectangle_26653" data-name="Rectangle 26653" width="33.425" height="34.924" fill="none"/>
    </clipPath>
  </defs>
  <g id="Group_70714" data-name="Group 70714" clip-path="url(#clip-path)">
    <path id="Path_249065" data-name="Path 249065" d="M15.058,25.525a10.147,10.147,0,0,1-10.3-9.99,10.147,10.147,0,0,1,10.3-9.99,10.147,10.147,0,0,1,10.3,9.99,10.147,10.147,0,0,1-10.3,9.99m0-21.6A11.8,11.8,0,0,0,3.087,15.535,11.8,11.8,0,0,0,15.058,27.15,11.8,11.8,0,0,0,27.029,15.535,11.8,11.8,0,0,0,15.058,3.92" transform="translate(1.657 1.924)" fill="#212345"/>
    <path id="Path_249066" data-name="Path 249066" d="M12.956,8.856V7.416h-1.1V8.838a3.513,3.513,0,0,0-2.179.845,2.719,2.719,0,0,0-.029,3.833,7.469,7.469,0,0,0,2.433,1.241,3.027,3.027,0,0,1,1.016.581,1.145,1.145,0,0,1,.267.817,1.042,1.042,0,0,1-.258.746,1.092,1.092,0,0,1-.838.279,1.555,1.555,0,0,1-1.039-.33,1.38,1.38,0,0,1-.383-1.106H8.565l-.014.042A2.631,2.631,0,0,0,9.418,18a4,4,0,0,0,2.305.865v1.351h1.1V18.866a3.435,3.435,0,0,0,2.107-.836,2.457,2.457,0,0,0,.768-1.891,2.559,2.559,0,0,0-.8-2,6.433,6.433,0,0,0-2.4-1.227,3.736,3.736,0,0,1-1.023-.623,1.009,1.009,0,0,1-.254-.716,1.148,1.148,0,0,1,.235-.762.993.993,0,0,1,.805-.288,1.093,1.093,0,0,1,.848.325,1.415,1.415,0,0,1,.307.993H15.7l.014-.033A2.711,2.711,0,0,0,14.995,9.8a3.276,3.276,0,0,0-2.03-.944Z" transform="translate(3.569 3.641)" fill="#1eaae7"/>
    <path id="Path_249067" data-name="Path 249067" d="M1.706,16.918A14.659,14.659,0,0,1,13.131,2.774V1.088A16.219,16.219,0,0,0,.392,20.4,16.471,16.471,0,0,0,13.131,32.763V31.069A14.658,14.658,0,0,1,1.706,16.918" transform="translate(0 0.534)" fill="#212345"/>
    <path id="Path_249068" data-name="Path 249068" d="M26.336,16.931A16.335,16.335,0,0,0,13.209,1.093V2.787A14.545,14.545,0,0,1,24.2,20.411,14.8,14.8,0,0,1,13.209,31.074v1.694A16.336,16.336,0,0,0,26.336,16.931" transform="translate(7.089 0.536)" fill="#212345"/>
    <path id="Path_249069" data-name="Path 249069" d="M14.535,5.878a.69.69,0,0,1-.622-.383l-1.5-3.083a.66.66,0,0,1,.323-.892l.006,0L15.918.066a.7.7,0,0,1,.919.313.66.66,0,0,1-.323.892l-.008,0L13.951,2.445l1.2,2.477a.659.659,0,0,1-.329.889.7.7,0,0,1-.286.064" transform="translate(6.625 0)" fill="#212345"/>
    <path id="Path_249070" data-name="Path 249070" d="M7.295,25.357a.68.68,0,0,1-.69-.666A.667.667,0,0,1,7,24.085l2.556-1.172-1.208-2.48a.66.66,0,0,1,.323-.892.7.7,0,0,1,.917.313l0,.007,1.5,3.083a.66.66,0,0,1-.323.892l-.006,0L7.587,25.3a.712.712,0,0,1-.294.064" transform="translate(3.545 9.563)" fill="#212345"/>
  </g>
</svg>
