<svg id="Component_7_1" data-name="Component 7 – 1" xmlns="http://www.w3.org/2000/svg" width="26.866" height="26.028" viewBox="0 0 26.866 26.028">
  <g id="Group_70564" data-name="Group 70564">
    <path id="Path_248928" data-name="Path 248928" d="M3.946,6.28a11.892,11.892,0,0,1,8.647-4.632A11.652,11.652,0,0,1,25.187,12.213l1.679-.081C26.362,4.98,19.9-.384,12.509.022a13.428,13.428,0,0,0-9.823,5.12L1.343,4.086,1.007,8.149l4.2-.813ZM23.172,19.446a11.988,11.988,0,0,1-8.564,4.876A11.69,11.69,0,0,1,1.679,14.163L0,14.326a13.38,13.38,0,0,0,13.433,11.7,8.915,8.915,0,0,0,1.427-.081A13.713,13.713,0,0,0,24.515,20.5l1.343,1.057.168-4.064-4.2.975Z" transform="translate(0 0)" fill="#1eaae7"/>
    <path id="Path_248929" data-name="Path 248929" d="M20.593,17.529V15.9h.84V14.278H14.717a3.36,3.36,0,0,0-6.717,0V15.9a3.36,3.36,0,0,0,6.717,0H16.4v1.625h1.679V15.9h.84v1.625ZM13.037,15.9a1.68,1.68,0,0,1-3.358,0V14.278a1.68,1.68,0,0,1,3.358,0Z" transform="translate(-1.283 -2.066)" fill="#1eaae7"/>
  </g>
</svg>
