<svg id="Component_11_1" data-name="Component 11 – 1" xmlns="http://www.w3.org/2000/svg" xmlns:xlink="http://www.w3.org/1999/xlink" width="25.18" height="25.185" viewBox="0 0 25.18 25.185">
  <defs>
    <clipPath id="clip-path">
      <rect id="Rectangle_26559" data-name="Rectangle 26559" width="25.18" height="25.185" fill="#00a7e8"/>
    </clipPath>
  </defs>
  <g id="Group_70606" data-name="Group 70606" clip-path="url(#clip-path)">
    <path id="Path_249006" data-name="Path 249006" d="M23.381,21.239a.9.9,0,0,1-.9.9H2.7a.9.9,0,0,1-.9-.9V12.246a.9.9,0,0,1,.9-.9H22.482a.9.9,0,0,1,.9.9Zm-.9-11.691H2.7a2.7,2.7,0,0,0-2.7,2.7v8.993a2.7,2.7,0,0,0,2.7,2.7H22.482a2.7,2.7,0,0,0,2.7-2.7V12.246a2.7,2.7,0,0,0-2.7-2.7" transform="translate(0 1.248)" fill="#00a7e8"/>
    <path id="Path_249007" data-name="Path 249007" d="M9.476,4.5a.9.9,0,0,0,.639-.26l1.16-1.169V8.1a.9.9,0,1,0,1.8,0V3.072l1.16,1.16A.9.9,0,0,0,15.5,2.964L12.8.266a.9.9,0,0,0-1.278,0l-2.7,2.7A.9.9,0,0,0,9.476,4.5M20.268,19.79h-.9a.9.9,0,0,0,0,1.8h.9a.9.9,0,0,0,0-1.8M4.98,14.394h-.9a.9.9,0,0,0,0,1.8h.9a.9.9,0,0,0,0-1.8m7.194,6.3a2.7,2.7,0,1,1,2.7-2.7,2.7,2.7,0,0,1-2.7,2.7m0-7.194a4.5,4.5,0,1,0,4.5,4.5,4.5,4.5,0,0,0-4.5-4.5" transform="translate(0.416 0)" fill="#00a7e8"/>
  </g>
</svg>
