<svg id="Component_4_1" data-name="Component 4 – 1" xmlns="http://www.w3.org/2000/svg" xmlns:xlink="http://www.w3.org/1999/xlink" width="31.577" height="30.637" viewBox="0 0 31.577 30.637">
  <defs>
    <clipPath id="clip-path">
      <rect id="Rectangle_26651" data-name="Rectangle 26651" width="31.577" height="30.637" fill="none"/>
    </clipPath>
  </defs>
  <g id="Group_70711" data-name="Group 70711" clip-path="url(#clip-path)">
    <path id="Path_249059" data-name="Path 249059" d="M28.188,9.546H3.383A3.333,3.333,0,0,0,0,12.828v10.94a3.333,3.333,0,0,0,3.383,3.282H28.194a3.333,3.333,0,0,0,3.383-3.282V12.828a3.333,3.333,0,0,0-3.383-3.282h-.006m1.134,14.223a1.117,1.117,0,0,1-1.134,1.1H3.383a1.117,1.117,0,0,1-1.134-1.1V12.828a1.117,1.117,0,0,1,1.134-1.1H28.194a1.117,1.117,0,0,1,1.134,1.1Z" transform="translate(0 3.586)" fill="#322f56"/>
    <path id="Path_249060" data-name="Path 249060" d="M14.492,16.414a5.472,5.472,0,1,0,0,10.939,5.555,5.555,0,0,0,5.637-5.469v-.006a5.556,5.556,0,0,0-5.637-5.464m0,8.752a3.286,3.286,0,1,0,0-.005Zm-9.02-7.658H4.351a1.126,1.126,0,0,0-1.248.978A1.109,1.109,0,0,0,4.111,19.7a1.162,1.162,0,0,0,.24,0H5.485a1.126,1.126,0,0,0,1.248-.978,1.109,1.109,0,0,0-1.008-1.211,1.162,1.162,0,0,0-.24,0Zm19.167,6.571H23.5a1.126,1.126,0,0,0-1.248.978,1.109,1.109,0,0,0,1.008,1.211,1.162,1.162,0,0,0,.24,0h1.134a1.1,1.1,0,0,0,0-2.189M11.109,5.474a1.149,1.149,0,0,0,.8-.318l1.455-1.422V9.85a1.138,1.138,0,0,0,2.256,0V3.735l1.455,1.411a1.158,1.158,0,0,0,1.594-.182,1.076,1.076,0,0,0,0-1.362L15.282.321a1.159,1.159,0,0,0-1.6,0L10.3,3.6a1.078,1.078,0,0,0,.016,1.556,1.157,1.157,0,0,0,.8.315" transform="translate(1.294 0)" fill="#4ca5e2"/>
  </g>
</svg>
