<svg xmlns="http://www.w3.org/2000/svg" width="25.449" height="23.858" viewBox="0 0 25.449 23.858">
  <defs>
    <style>
      .cls-1 {
        fill: #4ca5e2;
      }

      .cls-2 {
        fill: #322f56;
      }
    </style>
  </defs>
  <g id="Group_161" data-name="Group 161" transform="translate(0)">
    <path id="Path_245439" data-name="Path 245439" class="cls-1" d="M37.772,22H35.863a2.831,2.831,0,0,0-2.8,2.195,2.783,2.783,0,0,0,2.72,3.372h1.988Z" transform="translate(-13.118 -11.661)"/>
    <path id="Path_245440" data-name="Path 245440" class="cls-2" d="M33.473,13.772H31.087V9.8a.8.8,0,0,0-.8-.8H15.181A3.181,3.181,0,0,0,12,12.181V21.4a6.243,6.243,0,0,1,1.591-.414V14.933a3.181,3.181,0,0,0,1.591.429h17.5v13.52H20.541a6.5,6.5,0,0,1-.652,1.591H33.473a.8.8,0,0,0,.8-.8V14.567A.8.8,0,0,0,33.473,13.772Zm-3.976,0H15.181a1.591,1.591,0,0,1,0-3.181H29.5Z" transform="translate(-8.819 -9)"/>
    <path id="Path_245441" data-name="Path 245441" class="cls-1" d="M13.567,25a5.567,5.567,0,1,0,5.567,5.567A5.567,5.567,0,0,0,13.567,25Zm2.386,6.362H14.362v1.591a.8.8,0,1,1-1.591,0V31.362H11.181a.8.8,0,1,1,0-1.591h1.591V28.181a.8.8,0,0,1,1.591,0v1.591h1.591a.8.8,0,1,1,0,1.591Z" transform="translate(-8 -12.275)"/>
  </g>
</svg>
