<svg xmlns="http://www.w3.org/2000/svg" xmlns:xlink="http://www.w3.org/1999/xlink" width="25.18" height="25.185" viewBox="0 0 25.18 25.185">
  <defs>
    <clipPath id="clip-path">
      <rect id="Rectangle_26560" data-name="Rectangle 26560" width="25.18" height="25.185" fill="#00a7e8"/>
    </clipPath>
  </defs>
  <g id="Group_70611" data-name="Group 70611" clip-path="url(#clip-path)">
    <path id="Path_249008" data-name="Path 249008" d="M23.381,21.239a.9.9,0,0,1-.9.9H2.7a.9.9,0,0,1-.9-.9V12.246a.9.9,0,0,1,.9-.9H22.482a.9.9,0,0,1,.9.9Zm-.9-11.691H2.7a2.7,2.7,0,0,0-2.7,2.7v8.993a2.7,2.7,0,0,0,2.7,2.7H22.482a2.7,2.7,0,0,0,2.7-2.7V12.246a2.7,2.7,0,0,0-2.7-2.7" transform="translate(0 1.248)" fill="#00a7e8"/>
    <path id="Path_249009" data-name="Path 249009" d="M20.268,18.229h-.9a.9.9,0,0,0,0,1.8h.9a.9.9,0,0,0,0-1.8M4.98,12.833h-.9a.9.9,0,0,0,0,1.8h.9a.9.9,0,0,0,0-1.8m7.194,6.3a2.7,2.7,0,1,1,2.7-2.7,2.7,2.7,0,0,1-2.7,2.7m0-7.194a4.5,4.5,0,1,0,4.5,4.5,4.5,4.5,0,0,0-4.5-4.5" transform="translate(0.416 1.56)" fill="#00a7e8"/>
    <path id="Path_249010" data-name="Path 249010" d="M5.489,4.5a.9.9,0,0,0,.639-.261l1.16-1.168V8.1a.9.9,0,0,0,1.8,0V3.072l1.16,1.159a.9.9,0,0,0,1.268-1.268l-2.7-2.7a.9.9,0,0,0-1.278,0l-2.7,2.7A.9.9,0,0,0,5.489,4.5" transform="translate(0.598 0)" fill="#00a7e8"/>
    <path id="Path_249011" data-name="Path 249011" d="M17.607,4.5a.9.9,0,0,0-.639.261l-1.16,1.168V.9a.9.9,0,0,0-1.8,0V5.925L12.85,4.766a.9.9,0,0,0-1.268,1.268l2.7,2.7a.9.9,0,0,0,1.278,0l2.7-2.7A.9.9,0,0,0,17.607,4.5" transform="translate(1.486 0)" fill="#00a7e8"/>
  </g>
</svg>
