<svg id="Component_5_1" data-name="Component 5 – 1" xmlns="http://www.w3.org/2000/svg" xmlns:xlink="http://www.w3.org/1999/xlink" width="30.061" height="29.167" viewBox="0 0 30.061 29.167">
  <defs>
    <clipPath id="clip-path">
      <rect id="Rectangle_26648" data-name="Rectangle 26648" width="30.061" height="29.167" fill="none"/>
    </clipPath>
  </defs>
  <g id="Group_70705" data-name="Group 70705">
    <g id="Group_70704" data-name="Group 70704" clip-path="url(#clip-path)">
      <path id="Path_249051" data-name="Path 249051" d="M13.921,14.879A5.166,5.166,0,0,1,8.678,9.792,5.166,5.166,0,0,1,13.921,4.7a5.166,5.166,0,0,1,5.243,5.087,5.166,5.166,0,0,1-5.243,5.087m0-8.14a3.053,3.053,0,1,0,3.146,3.052A3.1,3.1,0,0,0,13.921,6.739Zm6.992,14.924a1.049,1.049,0,0,1-1-.692l-.761-2.221A1.742,1.742,0,0,0,17.5,17.6H10.337A1.745,1.745,0,0,0,8.674,18.75l-.749,2.212a1.058,1.058,0,0,1-1.343.613,1.012,1.012,0,0,1-.648-1.257L6.695,18.1a3.835,3.835,0,0,1,3.642-2.55h7.156a3.833,3.833,0,0,1,3.658,2.55l.762,2.215a1.012,1.012,0,0,1-.664,1.288,1.14,1.14,0,0,1-.335.056" transform="translate(1.109 0.72)" fill="#4ca5e2"/>
      <path id="Path_249052" data-name="Path 249052" d="M15.032,29.167A14.813,14.813,0,0,1,0,14.585,14.812,14.812,0,0,1,15.029,0,14.813,14.813,0,0,1,30.061,14.582v0A14.812,14.812,0,0,1,15.032,29.167m0-27.133A12.746,12.746,0,0,0,2.1,14.581,12.746,12.746,0,0,0,15.027,27.133,12.746,12.746,0,0,0,27.963,14.586h0A12.745,12.745,0,0,0,15.032,2.034" transform="translate(0 0)" fill="#322f56"/>
    </g>
  </g>
</svg>
