<svg id="Component_14_1" data-name="Component 14 – 1" xmlns="http://www.w3.org/2000/svg" width="24.958" height="23.71" viewBox="0 0 24.958 23.71">
  <path id="Path_249042" data-name="Path 249042" d="M17.738,0a7.312,7.312,0,0,1,7.22,7.386h0v8.938a7.312,7.312,0,0,1-7.22,7.386.851.851,0,0,1,0-1.7,5.627,5.627,0,0,0,5.556-5.684h0V9.191H19.2a2.5,2.5,0,0,0,0,5h1.7a.851.851,0,0,1,0,1.7H19.2a4.2,4.2,0,0,1,0-8.405h4.1v-.1A5.627,5.627,0,0,0,17.738,1.7H7.219A5.56,5.56,0,0,0,1.956,5.651H12.921a.851.851,0,0,1,0,1.7H1.667l0,.033v8.938a5.626,5.626,0,0,0,5.555,5.684h5.292a.851.851,0,0,1,0,1.7H7.219A7.311,7.311,0,0,1,0,16.324H0V7.386A7.311,7.311,0,0,1,7.219,0H17.738Zm2.017,10.763a.851.851,0,0,1,0,1.7h-.378a.851.851,0,0,1,0-1.7h.378Z" fill="#00a7e8"/>
</svg>
