<svg id="Component_3_1" data-name="Component 3 – 1" xmlns="http://www.w3.org/2000/svg" xmlns:xlink="http://www.w3.org/1999/xlink" width="31.432" height="29.367" viewBox="0 0 31.432 29.367">
  <defs>
    <clipPath id="clip-path">
      <rect id="Rectangle_26647" data-name="Rectangle 26647" width="31.432" height="29.367" fill="none"/>
    </clipPath>
  </defs>
  <g id="Group_70702" data-name="Group 70702">
    <rect id="Rectangle_26645" data-name="Rectangle 26645" width="16.882" height="24.003" transform="translate(5.53 4.519)" fill="#322f56"/>
    <rect id="Rectangle_26646" data-name="Rectangle 26646" width="19.951" height="24.003" transform="translate(5.53 4.519)" fill="#4ca5e2"/>
    <g id="Group_70701" data-name="Group 70701">
      <g id="Group_70700" data-name="Group 70700" clip-path="url(#clip-path)">
        <path id="Path_249048" data-name="Path 249048" d="M4.783,5.793a.859.859,0,0,0-.859.86h0V27.832a.86.86,0,0,0,.873.847H24.7a.86.86,0,0,0,.873-.847V6.653a.874.874,0,0,0-1.747,0V26.985H5.663V6.653a.859.859,0,0,0-.858-.862h-.03ZM3.626,2.982a.848.848,0,1,0,0,1.695h22.7a.848.848,0,1,0,0-1.695Z" transform="translate(0.74 0.689)" fill="#322f56"/>
        <path id="Path_249049" data-name="Path 249049" d="M2.62,0A2.594,2.594,0,0,0,0,2.542V6.5A2.594,2.594,0,0,0,2.62,9.037a.848.848,0,1,0,0-1.695.842.842,0,0,1-.873-.807V2.542a.839.839,0,0,1,.832-.847H28.812a.842.842,0,0,1,.873.807V6.5a.839.839,0,0,1-.832.847h-.041a.848.848,0,1,0,0,1.695A2.6,2.6,0,0,0,31.432,6.5V2.542A2.594,2.594,0,0,0,28.812,0Z" transform="translate(0 0)" fill="#322f56"/>
        <path id="Path_249050" data-name="Path 249050" d="M12.823,7.341a.859.859,0,0,0-.859.86h0v.34a2.572,2.572,0,0,0-2.037,2.469v.847a2.594,2.594,0,0,0,2.62,2.542h.582a.842.842,0,0,1,.873.807v.886a.839.839,0,0,1-.832.847h-.623a.842.842,0,0,1-.873-.807v-.039a.874.874,0,0,0-1.747,0,2.572,2.572,0,0,0,2.037,2.472v.346a.874.874,0,0,0,1.747,0v-.345A2.573,2.573,0,0,0,15.749,16.1v-.847a2.594,2.594,0,0,0-2.62-2.542h-.582a.842.842,0,0,1-.873-.807v-.886a.839.839,0,0,1,.832-.847h.623a.842.842,0,0,1,.873.807v.039a.874.874,0,0,0,1.747,0,2.573,2.573,0,0,0-2.037-2.472V8.2a.859.859,0,0,0-.858-.862h-.03" transform="translate(2.667 1.695)" fill="#fff"/>
      </g>
    </g>
  </g>
</svg>
